<svg width="299" height="303" viewBox="0 0 299 303" fill="none" xmlns="http://www.w3.org/2000/svg">
<path d="M289.058 0.897766C293.477 -1.65323 299 1.53598 299 6.638V295.781C298.999 300.883 293.477 304.071 289.058 301.52L149.499 220.945L260.346 156.949C264.765 154.397 264.765 148.02 260.346 145.469L149.5 81.472L289.058 0.897766ZM37.3618 155.984C36.9844 155.623 36.6599 155.227 36.3882 154.805C36.6599 155.227 36.9844 155.623 37.3618 155.984Z" fill="white"/>
<path d="M0 6.63733C0.000187166 1.53545 5.52299 -1.6529 9.94141 0.898071L149.5 81.4723L38.6533 145.469C34.2351 148.02 34.2352 154.398 38.6533 156.949L149.499 220.946L260.347 156.949C260.554 156.829 260.751 156.701 260.938 156.565C261.064 156.475 261.184 156.381 261.301 156.284C261.01 156.526 260.692 156.75 260.347 156.949L9.94141 301.52C5.52292 304.071 -2.23016e-07 300.882 0 295.78V6.63733Z" fill="white"/>
</svg>
